# AST/ASF file generated using VICON BodyLanguage
# -----------------------------------------------
:version 1.10
:name VICON
:units
  mass 1.0
  length 0.45
  angle deg
:documentation
   .ast/.asf automatically generated from VICON data using
   VICON BodyBuilder and BodyLanguage model FoxedUp or BRILLIANT.MOD
:root
   order TX TY TZ RX RY RZ
   axis XYZ
   position 0 0 0  
   orientation 0 0 0 
:bonedata
  begin
     id 1 
     name lhipjoint
     direction 0.650112 -0.723553 0.232005 
     length 2.45805 
     axis 0 0 0  XYZ
  end
  begin
     id 2 
     name lfemur
     direction 0.34202 -0.939693 0  
     length 7.00073  
     axis 0 0 20  XYZ
    dof rx ry rz
    limits (-160.0 20.0)
           (-70.0 70.0)
           (-60.0 70.0)
  end
  begin
     id 3 
     name ltibia
     direction 0.34202 -0.939693 0   
     length 7.8748   
     axis 0 0 20   XYZ
    dof rx
    limits (-10.0 170.0)
  end
  begin
     id 4 
     name lfoot
     direction 0.0542825 -0.14914 0.987325   
     length 1.75978   
     axis -90 7.62852e-016 20   XYZ
    dof rx rz
    limits (-45.0 90.0)
           (-70.0 20.0)
  end
  begin
     id 5 
     name ltoes
     direction 1.53509e-011 -4.21906e-011 1   
     length 0.893912   
     axis -90 7.62852e-016 20   XYZ
    dof rx
    limits (-90.0 20.0)
  end
  begin
     id 6 
     name rhipjoint
     direction -0.637897 -0.733345 0.235145   
     length 2.42522  
     axis 0 0 0  XYZ 
  end
  begin
     id 7 
     name rfemur
     direction -0.34202 -0.939693 0   
     length 7.02549   
     axis 0 0 -20   XYZ
    dof rx ry rz
    limits (-160.0 20.0)
           (-70.0 70.0)
           (-70.0 60.0)
  end
  begin
     id 8 
     name rtibia
     direction -0.34202 -0.939693 0   
     length 7.71512   
     axis 0 0 -20   XYZ
    dof rx
    limits (-10.0 170.0)
 end
 begin
     id 9 
     name rfoot
     direction -0.0822618 -0.226012 0.970645   
     length 1.90014  
     axis -90 -7.62852e-016 -20   XYZ
    dof rx rz
    limits (-45.0 90.0)
           (-20.0 70.0)
  end
  begin
     id 10 
     name rtoes
     direction -1.53542e-011 -4.21872e-011 1   
     length 0.957341   
     axis -90 -7.62852e-016 -20   XYZ
    dof rx
    limits (-90.0 20.0)
  end
  begin
     id 11 
     name lowerback
     direction -0.0022947 0.999774 -0.0211557   
     length 1.89909   
     axis 0 0 0   XYZ
    dof rx ry rz
    limits (-20.0 45.0)
           (-30.0 30.0)
           (-30.0 30.0)
  end
  begin
     id 12 
     name upperback
     direction 0.0107737 0.998635 0.0511027   
     length 1.8853   
     axis 0 0 0   XYZ
    dof rx ry rz
    limits (-20.0 45.0)
           (-30.0 30.0)
           (-30.0 30.0)
  end
  begin
     id 13 
     name thorax
     direction 0.011824 0.998136 0.0598754   
     length 1.88911   
     axis 0 0 0   XYZ
    dof rx ry rz
    limits (-20.0 45.0)
           (-30.0 30.0)
           (-30.0 30.0)
  end
  begin
     id 14 
     name lowerneck
     direction -0.0685355 0.990319 0.120714   
     length 1.91222   
     axis 0 0 0   XYZ
    dof rx ry rz
    limits (-20.0 45.0)
           (-30.0 30.0)
           (-30.0 30.0)
  end
  begin
     id 15 
     name upperneck
     direction 0.0886204 0.955665 -0.280805   
     length 1.92526   
     axis 0 0 0   XYZ
    dof rx ry rz
    limits (-20.0 45.0)
           (-30.0 30.0)
           (-30.0 30.0)
  end
  begin
     id 16
     name head
     direction 0.0233423 0.993502 -0.111393  
     length 1.96056  
     axis 0 0 0   XYZ
    dof rx ry rz
    limits (-20.0 45.0)
           (-30.0 30.0)
           (-30.0 30.0)
  end
  begin
     id 17 
     name lclavicle
     direction 0.941873 0.32922 0.0670041  
     length 3.31705  
     axis 0 0 0   XYZ
    dof ry rz
    limits (-20.0 10.0)
           (0.0 20.0)
  end
  begin
     id 18 
     name lhumerus
     direction 1 -4.4898e-011 3.38707e-028   
     length 5.29277   
     axis 180 -30 -90   XYZ
    dof rx ry rz
    limits (-60.0 90.0)
           (-90.0 90.0)
           (-90.0 90.0)
  end
  begin
     id 19
     name lradius
     direction 1 -4.48952e-011 1.63213e-028   
     length 2.85226   
     axis 180 -30 -90   XYZ
    dof rx
    limits (-10.0 170.0)
  end
  begin
     id 20
     name lwrist
     direction 1 -4.49001e-011 1.27856e-027   
     length 1.42613   
     axis -1.61767e-015 90 90   XYZ
    dof ry
    limits (-180.0 0.0)
 end
  begin
     id 21 
     name lhand
     direction 1 -4.48976e-011 2.55931e-027   
     length 0.602097   
     axis -1.63363e-015 90 90   XYZ
    dof rx rz
    limits (-90.0 90.0)
           (-45.0 45.0)
  end
  begin
     id 22 
     name lfingers
     direction 1 -4.48986e-011 5.11684e-027   
     length 0.485426   
     axis -3.26723e-015 90 90   XYZ
    dof rx
    limits (0.0 90.0)
  end
  begin
     id 23
     name lthumb
     direction 0.707107 -6.34915e-011 0.707107   
     length 0.696978   
     axis -90 45 -2.25915e-014   XYZ
    dof rx rz
    limits (-45.0 45.0)
           (-45.0 45.0)
  end
  begin
     id 24 
     name rclavicle
     direction -0.939974 0.327078 0.0973096   
     length 3.10337  
     axis 0 0 0   XYZ 
    dof ry rz
    limits (-10.0 20.0)
           (-20.0 0.0)
  end
  begin
     id 25 
     name rhumerus
     direction -1 -4.48975e-011 1.83745e-027  
     length 5.13304   
     axis 180 30 90   XYZ
    dof rx ry rz
    limits (-90.0 60.0)
           (-90.0 90.0)
           (-90.0 90.0)
  end
  begin
     id 26 
     name rradius
     direction -1 -4.48977e-011 7.1775e-029   
     length 2.74305   
     axis 180 30 90   XYZ
    dof rx
    limits (-10.0 170.0)
  end
  begin
     id 27 
     name rwrist
     direction -1 -4.48977e-011 1.27963e-027   
     length 1.37152   
     axis -1.61767e-015 -90 -90   XYZ
    dof ry
    limits (-180.0 0.0)
  end
  begin
     id 28
     name rhand
     direction -1 -4.4888e-011 2.56782e-027   
     length 0.767976   
     axis -1.63363e-015 -90 -90   XYZ
    dof rx rz
    limits (-90.0 90.0)
           (-45.0 45.0)
  end
  begin
     id 29
     name rfingers
     direction -1 -4.48947e-011 5.12384e-027   
     length 0.619162   
     axis -3.26723e-015 -90 -90   XYZ
    dof rx
    limits (0.0 90.0)
  end
  begin
     id 30
     name rthumb
     direction -0.707107 -6.34857e-011 0.707107   
     length 0.888997   
     axis -90 -45 2.25915e-014   XYZ
    dof rx rz
    limits (-45.0 45.0)
           (-45.0 45.0)
  end
:hierarchy
  begin
    root lhipjoint rhipjoint lowerback
    lhipjoint lfemur
    lfemur ltibia
    ltibia lfoot
    lfoot ltoes
    rhipjoint rfemur
    rfemur rtibia
    rtibia rfoot
    rfoot rtoes
    lowerback upperback
    upperback thorax
    thorax lowerneck lclavicle rclavicle
    lowerneck upperneck
    upperneck head
    lclavicle lhumerus
    lhumerus lradius
    lradius lwrist
    lwrist lhand lthumb
    lhand lfingers
    rclavicle rhumerus
    rhumerus rradius
    rradius rwrist
    rwrist rhand rthumb
    rhand rfingers
  end

#!OML:ASF F:\VICON\USERDATA\INSTALL\rory3\rory3.ASF
:FULLY-SPECIFIED
:DEGREES
644
root 1.2194 17.3102 -0.532872 28.7083 -18.6684 3.3328
lowerback 14.5322 -0.60508 4.65338
upperback 0.192178 0.391568 5.40234
thorax -7.99303 0.108898 3.08168
lowerneck -6.7756 -8.35658 -14.8118
upperneck 2.17667 -10.7492 16.3351
head 3.496 -5.05678 6.7819
rclavicle 1.59028e-014 3.49861e-014
rhumerus -68.5525 -39.9484 8.58481
rradius 48.5005
rwrist -3.42166
rhand -19.8373 -4.98037
rfingers 7.12502
rthumb 6.49689 -34.8607
lclavicle 1.59028e-014 3.49861e-014
lhumerus -42.4988 -15.6862 34.4423
lradius 35.7996
lwrist 37.9704
lhand -8.21018 38.5818
lfingers 7.12502
lthumb 17.7066 67.7956
rfemur -43.8662 18.3498 -2.58007
rtibia 21.8382
rfoot -9.1551 -13.2048
rtoes -28.4676
lfemur -37.5273 -4.80086 -24.9217
ltibia 22.5797
lfoot -13.9567 14.9149
ltoes -13.0241
645
root 1.21009 17.3092 -0.53725 28.8116 -18.691 3.3055
lowerback 14.5769 -0.620439 4.48708
upperback 0.192006 0.340396 5.30809
thorax -8.01687 0.0890167 3.08527
lowerneck -6.71626 -8.30768 -14.8921
upperneck 2.03468 -10.6715 16.368
head 3.43854 -5.02321 6.81672
rclavicle 3.65764e-014 6.36111e-015
rhumerus -68.7209 -39.9748 8.8042
rradius 48.2002
rwrist -2.94017
rhand -19.6068 -4.47575
rfingers 7.12502
rthumb 6.71943 -34.3491
lclavicle 3.65764e-014 6.36111e-015
lhumerus -42.408 -15.4004 34.267
lradius 35.4742
lwrist 37.7046
lhand -8.06832 38.3829
lfingers 7.12502
lthumb 17.8431 67.5843
rfemur -43.9618 18.161 -2.44224
rtibia 21.8282
rfoot -9.15897 -12.983
rtoes -28.385
lfemur -37.6679 -4.81685 -24.8369
ltibia 22.6407
lfoot -14.4619 14.7896
ltoes -10.1582
646
root 1.19756 17.3088 -0.541149 28.9335 -18.7127 3.2848
lowerback 14.5807 -0.634207 4.28044
upperback 0.184072 0.281344 5.20894
thorax -8.02585 0.0669717 3.10743
lowerneck -6.74425 -8.25791 -14.9805
upperneck 2.00679 -10.5917 16.3896
head 3.42847 -4.98362 6.84529
rclavicle 6.36111e-015 -1.59028e-014
rhumerus -68.8305 -39.9058 9.00114
rradius 47.8772
rwrist -2.54101
rhand -19.3272 -4.35755
rfingers 7.12502
rthumb 6.98933 -34.2222
lclavicle 6.36111e-015 -1.59028e-014
lhumerus -42.3929 -15.2283 34.0959
lradius 35.2903
lwrist 37.5442
lhand -8.02067 38.3565
lfingers 7.12502
lthumb 17.889 67.5537
rfemur -44.0938 18.0903 -2.38894
rtibia 21.8059
rfoot -9.14892 -12.8907
rtoes -28.2001
lfemur -37.84 -4.81164 -24.7591
ltibia 22.7131
lfoot -14.5419 14.8494
ltoes -9.89155
647
root 1.18455 17.3091 -0.544854 28.993 -18.7574 3.28144
lowerback 14.6589 -0.652966 4.02711
upperback 0.174923 0.213827 5.11309
thorax -8.07789 0.042632 3.16335
lowerneck -6.74536 -8.20755 -15.0339
upperneck 1.99687 -10.518 16.3918
head 3.41695 -4.94804 6.86214
rclavicle 6.36111e-015 5.88403e-014
rhumerus -68.9164 -39.8448 9.2236
rradius 47.5671
rwrist -2.04258
rhand -18.9715 -4.28372
rfingers 7.12502
rthumb 7.33267 -34.1367
lclavicle 6.36111e-015 5.88403e-014
lhumerus -42.3885 -14.9874 33.8774
lradius 35.0745
lwrist 37.3041
lhand -7.97748 38.3929
lfingers 7.12502
lthumb 17.9305 67.5864
rfemur -44.1933 18.1559 -2.412
rtibia 21.7954
rfoot -9.06025 -12.8935
rtoes -27.9726
lfemur -37.9407 -4.87385 -24.6649
ltibia 22.7807
lfoot -14.6306 14.9856
ltoes -9.62492
648
root 1.17323 17.311 -0.547521 29.0307 -18.7445 3.22553
lowerback 14.7189 -0.69001 3.89333
upperback 0.211587 0.138428 5.03493
thorax -8.06946 0.0102562 3.17081
lowerneck -6.81937 -8.17256 -15.1053
upperneck 2.02068 -10.4562 16.3727
head 3.42887 -4.91554 6.87097
rclavicle 6.36111e-015 -3.02153e-014
rhumerus -68.9283 -39.7517 9.2851
rradius 47.3463
rwrist -1.78703
rhand -18.6275 -4.31311
rfingers 7.12502
rthumb 7.6647 -34.1542
lclavicle 6.36111e-015 -3.02153e-014
lhumerus -42.2536 -14.6505 33.6266
lradius 34.7534
lwrist 37.0059
lhand -7.87806 38.5784
lfingers 7.12502
lthumb 18.0262 67.7631
rfemur -44.2059 18.1749 -2.31845
rtibia 21.7529
rfoot -9.00683 -12.8838
rtoes -28.0953
lfemur -38.0028 -4.8778 -24.5444
ltibia 22.8589
lfoot -14.6888 15.0129
ltoes -9.66133
649
root 1.16331 17.3116 -0.549194 29.1432 -18.7076 3.10131
lowerback 14.7077 -0.698348 3.9398
upperback 0.238373 0.122397 4.90295
thorax -8.03258 -0.00170913 3.00369
lowerneck -6.82277 -8.16425 -15.0974
upperneck 1.98817 -10.4427 16.3779
head 3.41766 -4.90931 6.87283
rclavicle -2.38542e-014 -2.70347e-014
rhumerus -69.102 -39.5451 9.29973
rradius 47.2091
rwrist -1.70841
rhand -18.3929 -4.26792
rfingers 7.12502
rthumb 7.8911 -34.1006
lclavicle -2.38542e-014 -2.70347e-014
lhumerus -41.9285 -14.3489 33.2824
lradius 34.3524
lwrist 36.7143
lhand -7.73031 38.531
lfingers 7.12502
lthumb 18.1683 67.7025
rfemur -44.2496 18.1129 -2.11754
rtibia 21.6837
rfoot -8.9413 -12.8056
rtoes -28.36
lfemur -38.1086 -4.79259 -24.3933
ltibia 22.8996
lfoot -14.4956 15.0196
ltoes -10.8811
650
root 1.15259 17.3119 -0.554003 29.2883 -18.6985 3.01155
lowerback 14.7021 -0.708216 3.8513
upperback 0.256276 0.0841797 4.78855
thorax -8.00827 -0.018655 2.93734
lowerneck -6.87725 -8.13806 -15.0693
upperneck 1.94565 -10.3997 16.3869
head 3.40651 -4.88623 6.87388
rclavicle 4.05521e-014 -5.40694e-014
rhumerus -69.1293 -39.3403 9.21771
rradius 46.9782
rwrist -1.64648
rhand -18.2801 -4.1661
rfingers 7.12502
rthumb 7.99996 -33.9947
lclavicle 4.05521e-014 -5.40694e-014
lhumerus -41.7417 -13.9721 32.9491
lradius 33.9595
lwrist 36.4745
lhand -7.7346 38.229
lfingers 7.12502
lthumb 18.1642 67.4009
rfemur -44.3512 18.1333 -2.04206
rtibia 21.5778
rfoot -8.82354 -12.8049
rtoes -28.6472
lfemur -38.2756 -4.8003 -24.2245
ltibia 22.9533
lfoot -14.3645 15.0977
ltoes -11.4027
